HIERARCHY
ROOT ui
{
	 OFFSET 0 0 0
	 CHANNELS 3 XPosition YPosition Z Position
	 EndSite
	 {
	 OFFSET 0 -1 0
	 }
}
ROOT li
{
	 OFFSET 0 0 0
	 CHANNELS 3 XPosition YPosition Z Position
	 EndSite
	 {
	 OFFSET 0 -1 0
	 }
}
ROOT ul
{
	 OFFSET 0 0 0
	 CHANNELS 3 XPosition YPosition Z Position
	 EndSite
	 {
	 OFFSET 0 -1 0
	 }
}
ROOT ll
{
	 OFFSET 0 0 0
	 CHANNELS 3 XPosition YPosition Z Position
	 EndSite
	 {
	 OFFSET 0 -1 0
	 }
}
ROOT tt
{
	 OFFSET 0 0 0
	 CHANNELS 3 XPosition YPosition Z Position
	 EndSite
	 {
	 OFFSET 0 -1 0
	 }
}
ROOT tb
{
	 OFFSET 0 0 0
	 CHANNELS 3 XPosition YPosition Z Position
	 EndSite
	 {
	 OFFSET 0 -1 0
	 }
}
ROOT td
{
	 OFFSET 0 0 0
	 CHANNELS 3 XPosition YPosition Z Position
	 EndSite
	 {
	 OFFSET 0 -1 0
	 }
}
ROOT v
{
	 OFFSET 0 0 0
	 CHANNELS 3 XPosition YPosition Z Position
	 EndSite
	 {
	 OFFSET 0 -1 0
	 }
}
ROOT bn
{
	 OFFSET 0 0 0
	 CHANNELS 3 XPosition YPosition Z Position
	 EndSite
	 {
	 OFFSET 0 -1 0
	 }
}
MOTION
Frames: 29
Frame Time: 0.002
-0.0073918142318725585	2.1728500723838806E-4	0		0.4905719299316406	-2.377660888671875	0		-1.069763916015625	0.04338611602783203	0		-0.7843362426757813	-2.57150146484375	0		1.5038525390625	-0.6335763549804687	0		3.189905517578125	-0.014461737632751465	0		4.637068359375	0.033083438873291016	0		5.604697265625	0.10973416137695312	0		-0.051808597564697266	5.93312841796875	0		
-0.011506160736083985	-0.0024083120822906492	0		0.5213359375	-2.393919189453125	0		-1.0176446533203125	0.05264017105102539	0		-0.7533723754882813	-2.57783154296875	0		1.4718348388671876	-0.632589599609375	0		3.158645263671875	-0.024399354934692384	0		4.6328955078125	0.027713518142700195	0		5.598482421875	0.10245560455322265	0		-0.05319263458251953	5.933443359375	0		
-0.012608281135559082	-0.002092966079711914	0		0.4845826416015625	-2.381896484375	0		-1.0228057861328126	0.04997476196289063	0		-0.7672136840820313	-2.571313720703125	0		1.4956317138671875	-0.6396610107421875	0		3.182502197265625	-0.026376487731933594	0		4.63179150390625	0.028290840148925783	0		5.59256396484375	0.11317993927001953	0		-0.05459184265136719	5.935755859375	0		
-0.017794462203979493	-0.004707531929016113	0		0.5173369750976563	-2.39519580078125	0		-1.01212939453125	0.04000304412841797	0		-0.804154052734375	-2.568370361328125	0		1.4745599365234374	-0.6378895874023438	0		3.181373046875	-0.02588513374328613	0		4.6306591796875	0.028864606857299805	0		5.6013876953125	0.11162060546875	0		-0.040893325805664064	5.944779296875	0		
-0.014878342628479004	-0.0014827369451522827	0		0.5033155822753906	-2.395621337890625	0		-1.084183837890625	0.04557818984985352	0		-0.7922640991210937	-2.57435693359375	0		1.493433837890625	-0.638880126953125	0		3.1743671875	-0.01829351806640625	0		4.63847900390625	0.0272580509185791	0		5.60024169921875	0.11223709106445312	0		-0.1757566680908203	5.92557666015625	0		
0.06096257781982422	-0.00363352108001709	0		0.5282591552734375	-2.398789794921875	0		-1.0103451538085937	0.0434062385559082	0		-0.7891759643554688	-2.57018603515625	0		1.475438232421875	-0.6331917724609375	0		3.179109375	-0.02494099998474121	0		4.6283896484375	0.029969659805297852	0		5.5939599609375	0.10492832946777343	0		-0.05902317428588867	5.93464794921875	0		
-0.017098514556884766	-9.188320040702819E-4	0		0.48946673583984374	-2.388779052734375	0		-1.0114407348632812	0.04362891006469727	0		-0.733162353515625	-2.572014404296875	0		1.5112786865234376	-0.6385270385742188	0		3.192238525390625	-0.012760551452636718	0		4.62729443359375	0.030489648818969727	0		5.58804833984375	0.1155907211303711	0		-0.06042940902709961	5.9349208984375	0		
0.05882659912109375	-0.0030904130935668944	0		0.5222962646484375	-2.40212353515625	0		-1.02835302734375	0.051135265350341796	0		-0.8080073852539063	-2.567414794921875	0		1.490271240234375	-0.637818115234375	0		3.16799560546875	-0.022909404754638672	0		4.63108154296875	0.021891990661621095	0		5.5918125	0.10604157257080078	0		-0.06173386383056641	5.9371787109375	0		
-0.019122940063476562	-4.1449400782585146E-4	0		0.48563906860351563	-2.390187744140625	0		-1.0134695434570313	0.04403600692749023	0		-0.7620604858398438	-2.578078125	0		1.4872647705078126	-0.6404646606445312	0		3.1652568359375	-0.009479014396667481	0		4.62223046875	0.029504161834716797	0		5.5959736328125	0.11445806884765625	0		-0.06303431701660156	5.9354208984375	0		
0.05693158721923828	-0.002610954999923706	0		0.49875433349609377	-2.39419580078125	0		-1.077541015625	0.03638753890991211	0		-0.7859306030273437	-2.58145654296875	0		1.47434423828125	-0.6419476318359375	0		3.198263427734375	-0.013738774299621581	0		4.6333134765625	0.02971509552001953	0		5.59986865234375	0.10484320831298828	0		-0.18044924926757813	5.9237958984375	0		
-0.012901518821716309	-0.0011217399835586547	0		0.500042724609375	-2.391999755859375	0		-1.0101590576171875	0.04829922103881836	0		-0.7205162963867188	-2.573495361328125	0		1.493743408203125	-0.63004638671875	0		3.172460205078125	-0.010935290336608887	0		4.63246728515625	0.030115352630615235	0		5.594205078125	0.11537315368652344	0		-0.05009444808959961	5.94657861328125	0		
0.05530667877197266	-0.0021961979866027834	0		0.5055702819824218	-2.379896728515625	0		-1.10279638671875	0.05715372848510742	0		-0.8090582885742188	-2.5647041015625	0		1.466880126953125	-0.6353141479492187	0		3.167589111328125	-0.015547112464904785	0		4.62272412109375	0.03264794158935547	0		5.5934208984375	0.11577545928955078	0		-0.06629248809814453	5.936052734375	0		
-0.022386260986328125	4.0463700890541076E-4	0		0.5008326110839844	-2.384622802734375	0		-1.0326082763671875	0.05199515533447266	0		-0.7398391723632812	-2.572833984375	0		1.4840999755859374	-0.63941357421875	0		3.1727353515625	-0.022369550704956054	0		4.62199853515625	0.03298239517211914	0		5.58273095703125	0.11832534790039062	0		-0.0672115707397461	5.9362333984375	0		
-0.027122039794921875	-0.0023524909019470215	0		0.494000732421875	-2.39632666015625	0		-1.1082784423828125	0.05351227188110352	0		-0.8014910888671875	-2.574565185546875	0		1.462458984375	-0.637815673828125	0		3.1720546875	-0.022108421325683594	0		4.626150390625	0.024195051193237303	0		5.5968232421875	0.10638258361816406	0		-0.1862463836669922	5.92756982421875	0		
-0.02371759605407715	7.307119965553284E-4	0		0.4934105529785156	-2.396156494140625	0		-1.0121661376953126	0.039865406036376956	0		-0.7640831909179687	-2.575124267578125	0		1.46487939453125	-0.634677001953125	0		3.1647548828125	-0.0027463529109954836	0		4.62377490234375	0.03950236892700195	0		5.59135498046875	0.11676998138427734	0		-0.0688623275756836	5.93655712890625	0		
-0.021288522720336912	0.0038223140239715576	0		0.4870939331054687	-2.381890869140625	0		-1.08959619140625	0.051400161743164065	0		-0.7965381469726562	-2.568407958984375	0		1.4842459716796874	-0.6358642578125	0		3.1707802734375	-0.021656085968017578	0		4.62003955078125	0.03380487060546875	0		5.58489306640625	0.1261456298828125	0		-0.1877964630126953	5.92786669921875	0		
-0.02494454574584961	0.0010161629915237426	0		0.5182387084960938	-2.398325927734375	0		-1.0311170654296875	0.05543813705444336	0		-0.7302677001953125	-2.578508544921875	0		1.48365625	-0.6356976928710938	0		3.189267578125	-0.016806596755981444	0		4.62427197265625	0.0249399528503418	0		5.59914013671875	0.11811555480957031	0		-0.07029051971435547	5.93884033203125	0		
-0.025517217636108397	0.001146854043006897	0		0.4819141235351562	-2.386529541015625	0		-1.031690673828125	0.0555516471862793	0		-0.7426846313476563	-2.57217138671875	0		1.501018310546875	-0.6398696899414062	0		3.16373583984375	-0.014164276123046875	0		4.6188642578125	0.03423995590209961	0		5.5844033203125	0.10959976196289062	0		-0.070964599609375	5.93897021484375	0		
0.03397573471069336	0.002174062967300415	0		0.5151773681640625	-2.400016357421875	0		-1.036279296875	0.05273187255859375	0		-0.7682622680664063	-2.5766025390625	0		1.48051708984375	-0.63835546875	0		3.148205078125	-0.013713376998901367	0		4.618330078125	0.034441226959228514	0		5.58386767578125	0.10981719970703124	0		-0.07163412475585937	5.93709326171875	0		
-0.02162461471557617	-0.003703511953353882	0		0.49286904907226564	-2.392489990234375	0		-1.085881591796875	0.04672607803344726	0		-0.79176806640625	-2.58007861328125	0		1.487990478515625	-0.6413580322265625	0		3.18064501953125	-0.018142839431762696	0		4.61892041015625	0.03862010955810547	0		5.5974912109375	0.1157754135131836	0		-0.0550583267211914	5.9458974609375	0		
0.05307271575927734	0.0020378870964050293	0		0.5116394348144532	-2.38471826171875	0		-1.0113310546875	0.04444853591918945	0		-0.797880615234375	-2.565876220703125	0		1.4678433837890625	-0.6268572387695313	0		3.1615224609375	-0.0016283650398254395	0		4.6205380859375	0.0407814826965332	0		5.588109375	0.11815595245361328	0		-0.05755266952514648	5.94804248046875	0		
-0.027295082092285157	0.0015995949506759644	0		0.480313720703125	-2.3860390625	0		-1.03347265625	0.055929595947265626	0		-0.742235107421875	-2.569808837890625	0		1.4813638916015626	-0.6349763793945312	0		3.146961669921875	-0.013201343536376952	0		4.6201923828125	0.0409822998046875	0		5.58776220703125	0.11837712860107422	0		-0.07322025299072266	5.937419921875	0		
0.04940885162353516	-7.040749788284302E-4	0		0.5070448303222657	-2.38942138671875	0		-1.03779296875	0.05307598495483398	0		-0.805521240234375	-2.573582275390625	0		1.479059326171875	-0.6378081665039063	0		3.167566162109375	-0.02041217613220215	0		4.61269140625	0.02831574821472168	0		5.582349609375	0.11069577026367187	0		-0.07358641052246094	5.93951513671875	0		
-0.03179652976989746	-0.0011410119533538819	0		0.4779451599121094	-2.387791748046875	0		-1.1011297607421875	0.04528609085083008	0		-0.7696815185546875	-2.57616552734375	0		1.478892822265625	-0.6376806030273438	0		3.170474365234375	-0.015297656059265136	0		4.6197431640625	0.041392494201660156	0		5.59212646484375	0.10874478912353516	0		-0.07395389556884766	5.93760400390625	0		
0.04912733459472656	-5.271170139312744E-4	0		0.5177756958007812	-2.39541943359375	0		-1.09717626953125	0.04826784133911133	0		-0.8395740356445313	-2.567833740234375	0		1.4608861083984375	-0.6332318115234375	0		3.16063134765625	-9.508299827575684E-4	0		4.619642578125	0.04159862518310547	0		5.58720654296875	0.119065673828125	0		-0.05901308822631836	5.948412109375	0		
-0.022950822830200196	-0.00314395809173584	0		0.4820281066894531	-2.383677734375	0		-1.0222255859375	0.045957767486572265	0		-0.7655885009765625	-2.572118408203125	0		1.4808642578125	-0.6344767456054687	0		3.155361083984375	-0.014694932937622071	0		4.62547802734375	0.033693870544433596	0		5.58718603515625	0.11929444885253906	0		-0.05919171142578125	5.94848779296875	0		
0.049169342041015626	-3.754369914531708E-4	0		0.5070566101074219	-2.389044677734375	0		-1.022167236328125	0.04600210952758789	0		-0.814307861328125	-2.5631826171875	0		1.480940673828125	-0.6343657836914063	0		3.200630615234375	-0.0033549349308013916	0		4.61657470703125	0.03605097579956055	0		5.5920966796875	0.11142566680908203	0		-0.1926665802001953	5.92896630859375	0		
-0.027670991897583007	0.002082357883453369	0		0.5072454833984374	-2.38896533203125	0		-1.037910400390625	0.05333073043823242	0		-0.7442523803710938	-2.571399169921875	0		1.499010498046875	-0.6385865478515625	0		3.150677734375	-0.007304717063903809	0		4.61670263671875	0.03623308563232422	0		5.57740625	0.12190141296386718	0		-0.07447055053710938	5.93989501953125	0		
0.049486427307128905	-2.4425600469112394E-4	0		0.5143060302734375	-2.39901611328125	0		-1.0259058837890624	0.04315487670898437	0		-0.8050504760742188	-2.573253173828125	0		1.4792342529296876	-0.6371298217773438	0		3.16586328125	-0.007441677093505859	0		4.6258525390625	0.034237762451171876	0		5.5875537109375	0.11990975952148437	0		-0.19263194274902343	5.9290859375	0		
